<?xml version="1.0" standalone="no"?>
<!DOCTYPE svg PUBLIC "-//W3C//DTD SVG 20010904//EN"
 "http://www.w3.org/TR/2001/REC-SVG-20010904/DTD/svg10.dtd">
<svg version="1.0" xmlns="http://www.w3.org/2000/svg"
 width="512.000000pt" height="510.000000pt" viewBox="0 0 512.000000 510.000000"
 preserveAspectRatio="xMidYMid meet">

<g transform="translate(0.000000,510.000000) scale(0.100000,-0.100000)"
fill="#000000" stroke="none">
<path d="M3596 5050 c-16 -5 -40 -19 -54 -32 -13 -13 -407 -445 -874 -961
l-849 -937 -97 79 c-53 44 -281 230 -507 415 l-410 336 -252 0 -253 0 -99 -41
c-66 -27 -112 -54 -136 -77 -68 -68 -65 -9 -65 -1288 0 -1260 -3 -1204 58
-1267 35 -37 58 -49 294 -146 275 -113 295 -112 459 26 82 69 962 789 998 817
10 8 22 1 50 -30 496 -556 1687 -1863 1708 -1875 66 -38 164 -25 215 28 59 62
58 45 58 735 l0 633 -660 540 c-363 297 -658 544 -657 550 2 5 299 252 660
549 l657 539 0 621 c0 422 -4 634 -11 661 -14 51 -73 110 -124 124 -46 13 -68
13 -109 1z m-2606 -2145 c168 -185 305 -343 305 -351 0 -7 -135 -162 -300
-344 -165 -182 -312 -346 -327 -363 l-27 -32 0 740 0 740 22 -26 c12 -15 159
-178 327 -364z"/>
</g>
</svg>
